<?xml version="1.0" encoding="UTF-8"?>
<svg id="Layer_10" data-name="Layer 10" xmlns="http://www.w3.org/2000/svg" viewBox="0 0 1920 1080">
  <defs>
    <style>
      .cls-1 {
        fill: #fff;
      }

      .cls-2 {
        fill: #eb5d22;
      }
    </style>
  </defs>
  <rect class="cls-2" x="-767.1" y="-442.73" width="6844.21" height="1679"/>
  <g>
    <path class="cls-1" d="M1158.59,385.88v112.28c-2.07.43-1.41-.26-1.97-1.13-3.4-5.27-4.9-12.23-7.53-17.88-19.48-41.95-50.17-85.26-102.33-80.97-79.44,6.52-84.59,136.24-74.74,194.01,8.07,47.32,33.76,106.05,92.03,96.97,45.07-7.02,52.84-55.84,51.59-94.1-.61-18.73-2.53-36.69-21.37-45.3l-12.88-4.21,99.99-2.63c1.72,2.61-5.73,6.24-7.47,7.86-4.82,4.48-10.07,15.95-10.07,22.39v132.02c-5.05-1.25-10.23-5.58-14.44-8.81-3.91-3-8.78-7.09-12.34-10.47-2.02-1.91-5.54-7.84-7.85-7.9-1.29-.04-17.68,11.51-20.92,13.29-33.83,18.65-74.25,20.73-110.46,7.52-80.1-29.23-110.39-156.85-73.62-231.07,4.29-8.66,8.92-15.44,12.58-20.25,3.6,5.43,7.23,11.11,10.85,17.05,3.86,6.33,7.47,12.54,10.85,18.6h6.2c1.03-23.24,2.07-46.49,3.1-69.73,1.53-1.6,5.18-5.31,10.33-9.3,50.55-39.12,126.77-13.38,130.67-11.87,8.82,3.41,16.85,8.37,25.67,11.74,4.32-.03,17.68-18.45,24.12-18.1Z"/>
    <path class="cls-1" d="M961.22,372.72v98.25c-1.77.34-2.05-.84-2.81-2.01-4.72-7.28-8.73-19.59-13.4-27.83-15.29-27.01-36.75-46.42-68.56-50.73-16.58-2.25-33.61-.39-50.32-1.01l.88,124.57c5.58,1.06,23.71,3.77,43-6.19,17.03-8.8,25.25-22.46,28.06-27.73.52-1.55,1.03-3.1,1.55-4.65-.52,33.06-1.03,66.12-1.55,99.17-.42-.74-.99-1.79-1.55-3.1-1.05-2.45-1.49-4.4-1.55-4.65-.87-3.52-15.59-26.74-46.49-34.09-5.04-1.2-12.37-2.42-21.47-2.11l-.04,122.4c1.46,15.4,2.91,36.56,18.17,44.98,3.78,2.09,10.75,2.49,11.69,7.17h-115.79c.74-5.47,7.86-6.07,12.2-9.29,11.36-8.42,13.27-21.89,14.98-35.02l.05-237.74c-1.48-13.11-4.51-30.27-14.94-39.45-3.95-3.47-9.47-4.76-13.09-7.96-1-.89-2.16-1.34-1.83-3h222.81Z"/>
  </g>
</svg>